# xmcd CD database file
#
# Track frame offsets:
#	150
#	17741
#	30887
#	46240
#	61396
#	79488
#	95162
#	114003
#	131898
#	150204
#	166343
#	181601
#	197771
#	213210
#	229871
#	254759
#
# Disc length: 4150 seconds
#
# Revision: 7
# Processed by: cddbd v1.5.2PL0 Copyright (c) Steve Scherf et al.
# Submitted via: CDex 1.78
#
DISCID=ca103410
DTITLE=Taylor Swift - Taylor Swift (Bonus Track Version)
DYEAR=2008
DGENRE=Country
TTITLE0=Tim McGraw
TTITLE1=Picture to Burn
TTITLE2=Teardrops on My Guitar
TTITLE3=A Place in This World
TTITLE4=Cold as You
TTITLE5=The Outside
TTITLE6=Tied Together with a Smile
TTITLE7=Stay Beautiful
TTITLE8=Should've Said No
TTITLE9=Mary's Song (Oh My My My)
TTITLE10=Our Song
TTITLE11=I'm Only Me When I'm with You (Bonus Track)
TTITLE12=Invisible (Bonus Track)
TTITLE13=Perfectly Good Heart (Bonus Track)
TTITLE14=Teardrops on My Guitar (Pop Version) (Bonus Track)
TTITLE15=Data Track
EXTD=YEAR: 2008
EXTT0=
EXTT1=
EXTT2=
EXTT3=
EXTT4=
EXTT5=
EXTT6=
EXTT7=
EXTT8=
EXTT9=
EXTT10=
EXTT11=
EXTT12=
EXTT13=
EXTT14=
EXTT15=
PLAYORDER=
